<?xml version="1.0" encoding="UTF-8"?>
<svg viewBox="0 0 16 16" version="1.1" xmlns="http://www.w3.org/2000/svg" xmlns:xlink="http://www.w3.org/1999/xlink">
    <g id="Icons---lined" stroke="none" stroke-width="1" fill="none" fill-rule="evenodd" stroke-linecap="round" stroke-linejoin="round">
        <g id="6_Customizable-Icons/Calendar/V1" stroke="currentColor">
            <path d="M15.3296,15.5 L0.4996,15.5 L0.4996,1.5 L15.4996,1.5 L15.4996,15.5 L0.4996,15.5 L0.4996,1.5 M0.5,4.5 L15.5,4.5 M3.5,0.5 L3.5,2.5 M12.5,0.5 L12.5,2.5 M3.5,7.5 L4.5,7.5 L4.5,8.5 L3.5,8.5 L3.5,7.5 Z M7.5,7.5 L8.5,7.5 L8.5,8.5 L7.5,8.5 L7.5,7.5 Z M11.5,7.5 L12.5,7.5 L12.5,8.5 L11.5,8.5 L11.5,7.5 Z M3.5,11.5 L4.5,11.5 L4.5,12.5 L3.5,12.5 L3.5,11.5 Z M7.5,11.5 L8.5,11.5 L8.5,12.5 L7.5,12.5 L7.5,11.5 Z M11.5,11.5 L12.5,11.5 L12.5,12.5 L11.5,12.5 L11.5,11.5 Z" id="Stroke-2"></path>
        </g>
    </g>
</svg>