<?xml version="1.0" encoding="UTF-8"?>
<svg viewBox="0 0 16 16" version="1.1" xmlns="http://www.w3.org/2000/svg" xmlns:xlink="http://www.w3.org/1999/xlink">
    <g id="Icons" stroke="none" stroke-width="1" fill="none" fill-rule="evenodd" stroke-linecap="round" stroke-linejoin="round">
        <g id="6_Customizable-Icons/clipboard/questionnaire" stroke="currentColor">
            <path d="M5.5,2.5 L2.5,2.5 L2.5,15.5 L13.5,15.5 L13.5,2.5 L10.5,2.5 M7.5,1 C7.5,0.724 7.724,0.5 8,0.5 C8.276,0.5 8.5,0.724 8.5,1 M9.5,3.5 L6.5,3.5 C5.948,3.5 5.5,3.052 5.5,2.5 C5.5,1.948 5.948,1.5 6.5,1.5 L9.5,1.5 C10.052,1.5 10.5,1.948 10.5,2.5 C10.5,3.052 10.052,3.5 9.5,3.5 Z M8,11 L8,9.5 C9,9.5 10,8.5 10,7.5 C10,6.5 9,5.5 8,5.5 C7,5.5 6,6.5 6,7.5 M8,13 L8,13" id="Stroke-26"></path>
        </g>
    </g>
</svg>