<?xml version="1.0" encoding="UTF-8"?>
<svg viewBox="0 0 49 48" version="1.1" xmlns="http://www.w3.org/2000/svg" xmlns:xlink="http://www.w3.org/1999/xlink">
    <g id="Icons---32px" stroke="none" stroke-width="0" fill="none" fill-rule="evenodd">
        <g id="6_Stroke_Icons-(32px)/02_Old-(Austauschen)/monitoring" transform="translate(1.000000, 0.000000)">
            <path d="M48,23.9890136 C48,29.2543945 46.3242188,34.2524414 43.1539307,38.4437256 C42.5284424,39.2709961 41.3521729,39.4313964 40.5274658,38.8077393 C39.7016602,38.1829834 39.5386963,37.0070801 40.1630859,36.1812744 C42.836792,32.6469727 44.25,28.4307862 44.25,23.9890136 C44.25,12.796875 35.1859131,3.75 24,3.75 C12.8063964,3.75 3.75,12.803833 3.75,23.9890136 C3.75,28.4307862 5.16320803,32.6469727 7.83654787,36.1812744 C8.46130369,37.0070801 8.29833984,38.1829834 7.47253416,38.8077393 C6.64636228,39.4324951 5.47082522,39.2695313 4.84570312,38.4437256 C1.67578125,34.2524414 -7.10542736e-15,29.2543945 -7.10542736e-15,23.9890136 C-7.10542736e-15,10.7233886 10.7416992,7.10542736e-15 24,7.10542736e-15 C37.265625,7.10542736e-15 48,10.7307129 48,23.9890136 Z M35.880249,12.6968994 C36.6123047,13.4289551 36.6123047,14.6162109 35.880249,15.3482666 L29.7685547,21.4599609 C30.2717286,22.3875732 30.5581055,23.4495849 30.5581055,24.5767823 C30.5581055,28.1931152 27.6159668,31.1348877 24,31.1348877 C20.383667,31.1348877 17.4418945,28.1931152 17.4418945,24.5767823 C17.4418945,20.9608154 20.383667,18.0186768 24,18.0186768 C25.1275635,18.0186768 26.1892089,18.3050537 27.1168213,18.8082276 L33.2285156,12.6965333 C33.9609375,11.9644776 35.1478271,11.9644776 35.880249,12.6968994 Z M26.8081055,24.5771484 C26.8081055,23.0288086 25.5483398,21.769043 24,21.769043 C22.4516602,21.769043 21.1918945,23.0288086 21.1918945,24.5771484 C21.1918945,26.1254883 22.4516602,27.3852539 24,27.3852539 C25.5483398,27.3852539 26.8081055,26.1254883 26.8081055,24.5771484 Z" id="Shape" fill="currentColor"></path>
        </g>
    </g>
</svg>