<?xml version="1.0" encoding="UTF-8"?>
<svg viewBox="0 0 16 16" version="1.1" xmlns="http://www.w3.org/2000/svg" xmlns:xlink="http://www.w3.org/1999/xlink">
    <g id="Icons---filled" stroke="none" stroke-width="1" fill="none" fill-rule="evenodd">
        <g id="6_Filled_Icons-(16px)/Divide" fill="currentColor">
            <path d="M8,11 C8.55228475,11 9,11.4477153 9,12 C9,12.5522847 8.55228475,13 8,13 C7.44771525,13 7,12.5522847 7,12 C7,11.4477153 7.44771525,11 8,11 Z M13.5,7.5 C13.7761424,7.5 14,7.72385763 14,8 C14,8.24545989 13.8231248,8.44960837 13.5898756,8.49194433 L13.5,8.5 L2.5,8.5 C2.22385763,8.5 2,8.27614237 2,8 C2,7.75454011 2.17687516,7.55039163 2.41012437,7.50805567 L2.5,7.5 L13.5,7.5 Z M8,3 C8.55228475,3 9,3.44771525 9,4 C9,4.55228475 8.55228475,5 8,5 C7.44771525,5 7,4.55228475 7,4 C7,3.44771525 7.44771525,3 8,3 Z" id="Stroke-5"></path>
        </g>
    </g>
</svg>