<?xml version="1.0" encoding="UTF-8"?>
<svg viewBox="0 0 16 16" version="1.1" xmlns="http://www.w3.org/2000/svg" xmlns:xlink="http://www.w3.org/1999/xlink">
    <g id="Icons---lined" stroke="none" stroke-width="1" fill="none" fill-rule="evenodd" stroke-linecap="round" stroke-linejoin="round">
        <g id="6_Customizable-Icons/at" stroke="currentColor">
            <path d="M8,5.5 C9.381,5.5 10.5,6.619 10.5,8 C10.5,9.381 9.381,10.5 8,10.5 C6.619,10.5 5.5,9.381 5.5,8 C5.5,6.619 6.619,5.5 8,5.5 Z M10.5,5.5 L10.5,8.75 C10.5,9.5 11.5,10.5 12.5,10.5 C13.5,10.5 14.5,9.5 14.5,8.649 L14.5,8 C14.5,4.41 11.589,1.5 8,1.5 C4.41,1.5 1.5,4.411 1.5,8 C1.5,11.59 4.411,14.5 8,14.5 C9.429,14.5 10.818,14.029 11.952,13.161" id="Stroke-2"></path>
        </g>
    </g>
</svg>