<?xml version="1.0" encoding="UTF-8"?>
<svg width="16px" height="16px" viewBox="0 0 16 16" version="1.1" xmlns="http://www.w3.org/2000/svg" xmlns:xlink="http://www.w3.org/1999/xlink">
    <title>6_Filled_Icons (16px)/Language/English</title>
    <g id="6_Filled_Icons-(16px)/Language/English" stroke="none" stroke-width="1" fill="none" fill-rule="evenodd">
        <g id="Group-10" transform="translate(0.000000, 0.000000)">
            <polygon id="Fill-1" fill="#6060D8" points="0.0003 16 16.0003 16 16.0003 0 0.0003 0"></polygon>
            <polygon id="Fill-2" fill="#FFFFFF" points="10.0002 5.11 9.0002 5.69 8.4602 6 8.0002 6.27 7.0002 6.84 6.7302 7 6.0002 7.42 5.0012 8 3.2602 9 1.5302 10 0.0002 10.88 0.0002 14.35 6.0002 10.88 7.0002 10.31 7.5302 10 8.0002 9.73 9.0002 9.15 9.2702 9 10.0002 8.58 11.0002 8 12.7302 7 14.4602 6 16.0002 5.11 16.0002 1.65"></polygon>
            <polygon id="Fill-3" fill="#DB5F77" points="10.47 6.0001 10 6.2701 9 6.8501 8.73 7.0001 8 7.4201 7.001 8.0001 6.001 8.5691 6.001 8.5801 5.271 9.0001 3.54 10.0001 0 12.0401 0 13.2001 5.541 10.0001 6.001 9.7301 7.001 9.1501 7.271 9.0001 8 8.5801 9 8.0001 10 7.4201 10.73 7.0001 12.46 6.0001 16.001 3.9601 16.001 2.8091"></polygon>
            <polygon id="Fill-4" fill="#FFFFFF" points="0.0003 5.11 1.5403 6 5.0003 8 6.0003 8.57 6.0003 8.58 6.7403 9 7.0003 9.15 8.0003 9.73 8.4703 10 9.0003 10.31 10.0003 10.88 16.0003 14.35 16.0003 10.89 14.4703 10 12.7303 9 11.0003 8 10.0003 7.42 9.2703 7 9.0003 6.85 8.0003 6.27 7.5303 6 7.0003 5.69 6.0003 5.11 0.0003 1.65"></polygon>
            <polygon id="Fill-5" fill="#DB5F77" points="0.0003 3.9598 3.5403 5.9998 5.2703 6.9998 6.0003 7.4208 7.0003 7.9998 8.0003 8.5808 8.7403 8.9998 9.0003 9.1498 10.0003 9.7298 10.4703 9.9998 16.0003 13.1898 16.0003 12.0398 12.4603 9.9998 10.7303 8.9998 10.0003 8.5808 9.0003 7.9998 8.0003 7.4208 7.2703 6.9998 7.0003 6.8398 6.0003 6.2698 5.5403 5.9998 0.0003 2.7998"></polygon>
            <polygon id="Fill-6" fill="#FFFFFF" points="6.0003 16 10.0003 16 10.0003 0 6.0003 0"></polygon>
            <polygon id="Fill-7" fill="#FFFFFF" points="0.0003 10 16.0003 10 16.0003 6 0.0003 6"></polygon>
            <polygon id="Fill-8" fill="#DB5F77" points="7.0003 16 9.0003 16 9.0003 0 7.0003 0"></polygon>
            <polygon id="Fill-9" fill="#DB5F77" points="0.0003 9 16.0003 9 16.0003 7 0.0003 7"></polygon>
        </g>
    </g>
</svg>