<?xml version="1.0" encoding="UTF-8"?>
<svg viewBox="0 0 48 48" version="1.1" xmlns="http://www.w3.org/2000/svg" xmlns:xlink="http://www.w3.org/1999/xlink">
    <g id="Icons---old" stroke="none" stroke-width="1" fill="none" fill-rule="evenodd">
        <g id="6_Icons/favourite">
            <path d="M47.8577705,18.1092876 C47.7003934,17.6045665 47.2872787,17.2440515 46.7856393,17.1616481 L31.8348197,14.9367554 L25.1069508,0.773665236 C24.8807213,0.299845494 24.4184262,0.00113304721 23.9167869,0.00113304721 L23.9167869,0.00113304721 C23.4151475,0.00113304721 22.9528525,0.299845494 22.726623,0.783965665 L16.0872787,14.9882575 L1.13645902,17.3161545 C0.634819672,17.3985579 0.221704918,17.759073 0.0643278689,18.263794 C-0.0930491803,18.768515 0.0446557377,19.3247382 0.408590164,19.6852532 L11.2577705,30.696412 L8.74957377,46.2912618 C8.66104918,46.8165837 8.86760656,47.3419056 9.28072131,47.6509185 C9.50695082,47.8260258 9.78236066,47.9187296 10.0577705,47.9187296 C10.2741639,47.9187296 10.4807213,47.8672275 10.6774426,47.7539227 L24.0249836,40.3479142 L37.4118689,47.6715193 C37.6085902,47.7745236 37.8151475,47.8260258 38.0217049,47.8260258 L38.0217049,47.8260258 C38.7495738,47.8260258 39.3495738,47.1976996 39.3495738,46.4354678 C39.3495738,46.3221631 39.3397377,46.2191588 39.3102295,46.1161545 L36.7233443,30.6140086 L47.5036721,19.5410472 C47.8872787,19.1702318 48.0151475,18.6140086 47.8577705,18.1092876 Z M34.3823607,29.1410472 C34.0676066,29.4603605 33.9299016,29.9238798 34.0085902,30.3770987 L36.2610492,43.9015622 L24.6348197,37.5461974 C24.2512131,37.3298884 23.788918,37.3401888 23.3954754,37.5461974 L11.8085902,43.9736652 L13.9823607,30.4286009 C14.0512131,29.975382 13.9135082,29.5221631 13.5987541,29.2028498 L4.19547541,19.6440515 L17.1692459,17.6251674 C17.6020328,17.5530644 17.9758033,17.2749528 18.1626885,16.8629356 L23.926623,4.53332189 L29.7692459,16.8320343 C29.9659672,17.2440515 30.3397377,17.5221631 30.7725246,17.5942661 L43.7561311,19.5307468 L34.3823607,29.1410472 Z" id="Shape" fill="currentColor"></path>
        </g>
    </g>
</svg>