<?xml version="1.0" encoding="UTF-8"?>
<svg viewBox="0 0 16 16" version="1.1" xmlns="http://www.w3.org/2000/svg" xmlns:xlink="http://www.w3.org/1999/xlink">
    <g id="Icons---lined" stroke="none" stroke-width="1" fill="none" fill-rule="evenodd" stroke-linecap="round" stroke-linejoin="round">
        <g id="6_Stroke_Icons-(16px)/film" stroke="currentColor">
            <path d="M3,0.5 L13,0.5 C13.783,0.5 14.5,1.217 14.5,2 L14.5,14 C14.5,14.783 13.783,15.5 13,15.5 L3,15.5 C2.125,15.5 1.5,14.875 1.5,14 L1.5,2 C1.5,1.217 2.217,0.5 3,0.5 Z M4.5,0.625 L4.5,15.5 M11.5,0.5 L11.5,15.5 M1.5,3.5 L4.5,3.5 M11.5,3.375 L14.5,3.375 M1.5,6.5 L14.5,6.5 M1.5,9.5 L4.5,9.5 M11.5,9.5 L14.5,9.5 M1.5,12.5 L14.5,12.5" id="Stroke-2"></path>
        </g>
    </g>
</svg>