<?xml version="1.0" encoding="UTF-8"?>
<svg viewBox="0 0 16 16" version="1.1" xmlns="http://www.w3.org/2000/svg" xmlns:xlink="http://www.w3.org/1999/xlink">
    <g id="Icons---lined" stroke="none" stroke-width="1" fill="none" fill-rule="evenodd" stroke-linecap="round" stroke-linejoin="round">
        <g id="6_Stroke_Icons-(16px)/Settings/horizontal" stroke="currentColor">
            <path d="M8.5,13.5 C7.948,13.5 7.5,13.052 7.5,12.5 C7.5,11.948 7.948,11.5 8.5,11.5 C9.052,11.5 9.5,11.948 9.5,12.5 C9.5,13.052 9.052,13.5 8.5,13.5 Z M13.5,3.5 L6.5,3.5 M4.5,3.5 L2.5,3.5 M5.5,4.5 C4.948,4.5 4.5,4.052 4.5,3.5 C4.5,2.948 4.948,2.5 5.5,2.5 C6.052,2.5 6.5,2.948 6.5,3.5 C6.5,4.052 6.052,4.5 5.5,4.5 Z M13.5,8 L11.5,8 M9.5,8 L2.5,8 M10.5,9 C9.948,9 9.5,8.552 9.5,8 C9.5,7.448 9.948,7 10.5,7 C11.052,7 11.5,7.448 11.5,8 C11.5,8.552 11.052,9 10.5,9 Z M13.5,12.5 L9.5,12.5 M7.5,12.5 L2.5,12.5" id="Stroke-18"></path>
        </g>
    </g>
</svg>