<?xml version="1.0" encoding="UTF-8"?>
<svg viewBox="0 0 16 16" version="1.1" xmlns="http://www.w3.org/2000/svg">
    <g id="Icons---lined" stroke="none" stroke-width="1" fill="none" fill-rule="evenodd" stroke-linecap="round" stroke-linejoin="round">
        <g id="6_Stroke_Icons-(16px)/gear" stroke="currentColor">
            <path d="M13.29,9.5 C13.17,9.92 13.01,10.31 12.8,10.68 L13.66,11.54 L11.54,13.66 L10.68,12.8 C10.31,13.01 9.92,13.17 9.5,13.29 L9.5,14.5 L6.5,14.5 L6.5,13.29 C6.08,13.17 5.69,13.01 5.32,12.8 L4.46,13.66 L2.34,11.54 L3.2,10.68 C2.99,10.31 2.83,9.92 2.71,9.5 L1.5,9.5 L1.5,6.5 L2.71,6.5 C2.83,6.08 2.99,5.69 3.2,5.32 L2.34,4.46 L4.46,2.34 L5.32,3.2 C5.69,2.99 6.08,2.83 6.5,2.71 L6.5,1.5 L9.5,1.5 L9.5,2.71 C9.92,2.83 10.31,2.99 10.68,3.2 L11.54,2.34 L13.66,4.46 L12.8,5.32 C13.01,5.69 13.17,6.08 13.29,6.5 L14.5,6.5 L14.5,9.5 L13.29,9.5 Z M10.5,8 C10.5,9.381 9.381,10.5 8,10.5 C6.619,10.5 5.5,9.381 5.5,8 C5.5,6.619 6.619,5.5 8,5.5 C9.381,5.5 10.5,6.619 10.5,8 Z" id="Stroke-2" />
        </g>
    </g>
</svg>