<?xml version="1.0" encoding="UTF-8"?>
<svg viewBox="0 0 16 16" version="1.1" xmlns="http://www.w3.org/2000/svg" xmlns:xlink="http://www.w3.org/1999/xlink">
    <g id="Icons---lined" stroke="none" stroke-width="1" fill="none" fill-rule="evenodd" stroke-linecap="round" stroke-linejoin="round">
        <g id="6_Customizable-Icons/grid/3*3" stroke="currentColor">
            <path d="M6.5,14.5 L9.5,14.5 L9.5,11.5 L6.5,11.5 L6.5,14.5 Z M1.5,4.5 L4.5,4.5 L4.5,1.5 L1.5,1.5 L1.5,4.5 Z M11.5,4.5 L14.5,4.5 L14.5,1.5 L11.5,1.5 L11.5,4.5 Z M6.5,4.5 L9.5,4.5 L9.5,1.5 L6.5,1.5 L6.5,4.5 Z M1.5,9.5 L4.5,9.5 L4.5,6.5 L1.5,6.5 L1.5,9.5 Z M11.5,9.5 L14.5,9.5 L14.5,6.5 L11.5,6.5 L11.5,9.5 Z M6.5,9.5 L9.5,9.5 L9.5,6.5 L6.5,6.5 L6.5,9.5 Z M1.5,14.5 L4.5,14.5 L4.5,11.5 L1.5,11.5 L1.5,14.5 Z M11.5,14.5 L14.5,14.5 L14.5,11.5 L11.5,11.5 L11.5,14.5 Z" id="Stroke-13"></path>
        </g>
    </g>
</svg>