<?xml version="1.0" encoding="UTF-8"?>
<svg viewBox="0 0 16 16" version="1.1" xmlns="http://www.w3.org/2000/svg" xmlns:xlink="http://www.w3.org/1999/xlink">
    <g id="Icons---lined" stroke="none" stroke-width="1" fill="none" fill-rule="evenodd" stroke-linecap="round" stroke-linejoin="round">
        <g id="6_Stroke_Icons-(16px)/Eye-closed" stroke="currentColor">
            <path d="M6.2798,3.7798 C6.8398,3.5898 7.4098,3.4998 7.9998,3.4998 C10.3898,3.4998 12.5598,4.9998 14.4998,7.9998 C13.9398,8.8798 13.3498,9.6198 12.7398,10.2398 M4.5998,4.5998 C3.5098,5.3598 2.4798,6.4898 1.4998,7.9998 C3.4398,10.9998 5.6098,12.4998 7.9998,12.4998 C9.1898,12.4998 10.3298,12.1198 11.3998,11.3998 M8,5.5 C9.38,5.5 10.5,6.62 10.5,8 M6.23,6.23 C5.78,6.68 5.5,7.31 5.5,8 C5.5,9.38 6.62,10.5 8,10.5 C8.69,10.5 9.32,10.22 9.77,9.77 M1.5,1.5 L14.5,14.5" id="Stroke-1"></path>
        </g>
    </g>
</svg>