<?xml version="1.0" encoding="UTF-8"?>
<svg viewBox="0 0 32 32" version="1.1" xmlns="http://www.w3.org/2000/svg" xmlns:xlink="http://www.w3.org/1999/xlink">
    <g id="Icons---32px" stroke="none" stroke-width="1" fill="none" fill-rule="evenodd">
        <g id="6_Stroke_Icons-(32px)/01_Tools/Image-Viewer" stroke="none">
            <rect stroke="none" x="0" y="0" width="32" height="32"></rect>
            <path d="M28.0024,31 L3.9974,31 C2.3414,31 1.0004,29.658 1.0004,28.002 L1.0004,3.998 C1.0004,2.342 2.3414,1 3.9974,1 L28.0024,1 C29.6584,1 31.0004,2.342 31.0004,3.998 L31.0004,28.002 C31.0004,29.658 29.6584,31 28.0024,31 Z M24,19 L31,26 M10,15 L26,31 M24,19 L12,31 M10,15 L1,24 M27,12 C27,13.658 25.658,15 24,15 C22.342,15 21,13.658 21,12 C21,10.342 22.342,9 24,9 C25.658,9 27,10.342 27,12 Z" id="Stroke-2" stroke="currentColor" stroke-width="2" stroke-linecap="round" stroke-linejoin="round"></path>
        </g>
    </g>
</svg>