<?xml version="1.0" encoding="UTF-8"?>
<svg viewBox="0 0 16 16" version="1.1" xmlns="http://www.w3.org/2000/svg">
    <g id="Icons---lined" stroke="none" stroke-width="1" fill="none" fill-rule="evenodd" stroke-linecap="round" stroke-linejoin="round">
        <g id="6_Stroke_Icons-(16px)/KeyFilled" fill="currentColor">
            <path d="M14.5,6 C14.5,8.49 12.49,10.5 10,10.5 C9.28,10.5 8.59,10.33 7.98,10.02 L6.5,11.5 L5.5,11.5 L5.5,13.5 L4.5,13.5 L3.5,14.5 L1.5,14.5 L1.5,12.5 L5.98,8.02 C5.67,7.41 5.5,6.72 5.5,6 C5.5,3.51 7.51,1.5 10,1.5 C12.49,1.5 14.5,3.51 14.5,6 Z M11.5,6 C11.5,6.829 10.829,7.5 10,7.5 C9.171,7.5 8.5,6.829 8.5,6 C8.5,5.171 9.171,4.5 10,4.5 C10.829,4.5 11.5,5.171 11.5,6 Z" id="Stroke-2"></path>
        </g>
    </g>
</svg>