<?xml version="1.0" encoding="UTF-8"?>
<svg viewBox="0 0 70 16" version="1.1" xmlns="http://www.w3.org/2000/svg" xmlns:xlink="http://www.w3.org/1999/xlink">
    <g id="Icons---lined" stroke="none" stroke-width="1" fill="currentColor" fill-rule="evenodd">
        <g id="6_Customizable-Icons/Luca-Logo/Schriftzug" fill="currentColor">
            <path d="M58.226424,8.51289359 L60.8582707,2.18097274 L63.6195526,8.51289359 L58.226424,8.51289359 Z M65.2811379,15.9998 L70,15.9998 C69.1922849,15.9998 68.489924,15.5308059 68.1578076,14.8488144 L68.1206828,14.7578155 L67.7755226,13.9658254 L61.7211713,0.0959988 L61.6980937,0.0369995375 L61.6017699,0 C61.4452438,0.54799315 60.9917193,0.970987863 60.4238103,1.09098636 L60.4007327,1.14598568 L54.9062635,14.3668204 L54.7818453,14.6648167 L54.740707,14.7668154 C54.4316682,15.4888064 53.7062297,15.9998 52.8664066,15.9998 L56.68424,15.9998 C56.1022838,15.9998 55.6357155,15.5348058 55.6357155,14.9548131 C55.6357155,14.8078149 55.6638099,14.6748166 55.7149819,14.5458182 L55.7982619,14.3518206 L57.981601,9.09288634 L63.8734059,9.09288634 L66.1540722,14.3248209 L66.2463825,14.5458182 C66.301568,14.6748166 66.3296624,14.8078149 66.3296624,14.9548131 C66.3296624,15.5348058 65.8580772,15.9998 65.2811379,15.9998 L65.2811379,15.9998 Z M10.3237024,13.3140336 L9.32735323,16 L0,16 C0.584966323,16 1.0575549,15.5290059 1.0575549,14.9460132 L1.0575549,2.06717416 C1.0575549,1.48418145 0.584966323,1.01318734 0,1.01318734 L3.75963775,1.01318734 C3.26096149,1.01318734 2.84456179,1.35518306 2.73218404,1.8161773 C2.71111321,1.8961763 2.70208286,1.98017525 2.70208286,2.06717416 L2.70208286,13.0730366 C2.70208286,13.197035 2.71412333,13.3160335 2.73218404,13.4330321 C2.90376078,14.4260197 3.77067485,15.1800102 4.81618928,15.1800102 L8.61997543,15.1800102 C8.92500075,15.1730103 9.19089454,15.0000125 9.32735323,14.7470157 L9.36247128,14.6790165 L10.1541324,13.1730353 L10.3237024,13.3140336 Z M29.2516273,1.01338733 C28.6666609,1.01338733 28.1940724,1.48438145 28.1940724,2.06737416 L28.1940724,10.1452732 C28.1940724,11.2372595 27.8930605,12.2582468 27.3723101,13.1332358 C26.3498732,14.8502144 24.470556,15.9992 22.3203282,15.9992 C20.6577395,15.9992 19.1556905,15.3112086 18.091112,14.2062224 C17.0716853,13.1552356 16.446584,11.7222535 16.446584,10.1452732 L16.446584,2.30137123 C16.446584,1.58938013 15.8686413,1.01338733 15.1542399,1.01338733 L19.3844595,1.01338733 C18.6700581,1.01338733 18.091112,1.58938013 18.091112,2.30137123 L18.091112,10.3682704 C18.091112,12.9232385 20.1680936,14.9932126 22.731711,14.9932126 C25.2953284,14.9932126 27.3723101,12.9232385 27.3723101,10.3682704 L27.3723101,2.06737416 C27.3723101,1.48438145 26.8997215,1.01338733 26.3147552,1.01338733 L29.2516273,1.01338733 Z M48.8874316,12.7520406 L48.7349189,14.8640142 C47.295079,15.5900051 45.666605,16 43.9418072,16 C43.8595307,16 43.7792609,16 43.6979877,15.997 L42.48491,15.997 C42.4216975,16 42.3604918,16 42.2972793,16 C41.5808711,16 40.8875405,15.8990013 40.2323381,15.7140036 C38.2747579,15.1570105 36.6442771,13.8310271 35.6880629,12.0850489 C35.6880629,12.082049 35.6850528,12.082049 35.6850528,12.080049 C35.1081134,11.0170623 34.7780038,9.79907751 34.7780038,8.50609367 C34.7780038,6.60711741 35.4863849,4.8721391 36.6563176,3.55415557 C36.7195301,3.47915651 36.7847493,3.40615742 36.8529787,3.3361583 C36.8579955,3.33215835 36.8630124,3.32715841 36.8680292,3.32215847 C37.0064947,3.17716029 37.1519837,3.03916201 37.3024897,2.90816365 C38.6319586,1.7281784 40.3798339,1.01318734 42.2972793,1.01318734 C42.4076503,1.01318734 42.5180213,1.0161873 42.6283923,1.02118724 C42.7508038,1.0161873 42.8702051,1.01318734 42.9926166,1.01318734 C44.6562087,1.01318734 46.2184601,1.45118186 47.566993,2.21717229 L47.7736878,3.37115786 L47.8770352,3.95515056 L47.9071364,4.12714841 L47.7154922,4.21914726 C46.7823555,2.95516306 45.3445224,2.08117399 43.6999944,1.88217647 C43.6407954,1.87517656 43.5825998,1.86817665 43.5234008,1.86317671 C43.4621951,1.85817677 43.3989826,1.85417682 43.3357701,1.84917689 L43.3187128,1.84917689 C43.2113519,1.84217697 43.1029876,1.840177 42.9926166,1.840177 C42.8822456,1.840177 42.7738813,1.84217697 42.6655171,1.84917689 L42.6494631,1.84917689 C42.5531393,1.85417682 42.4568156,1.86317671 42.3635019,1.87317659 C40.9086114,2.00617492 39.5931897,2.60316746 38.5597157,3.51715604 C38.0560226,3.95915051 37.6195554,4.47714404 37.2713851,5.05313684 C36.6533075,6.06012425 36.3011236,7.24210947 36.3011236,8.50609367 C36.3011236,11.0640617 37.7459804,13.2860339 39.8681138,14.40002 C40.5213095,14.7470157 41.2377176,14.9860127 41.9962675,15.0980113 C42.323367,15.1480106 42.65448,15.1730103 42.9926166,15.1730103 L44.1675661,15.1730103 C45.2381649,15.1730103 46.234514,14.8520143 47.0643033,14.3020212 C47.7104754,13.8710266 48.2553068,13.3070337 48.6526424,12.642042 L48.8874316,12.7520406 Z" id="Fill-9"></path>
        </g>
    </g>
</svg>