<?xml version="1.0" encoding="UTF-8"?>
<svg viewBox="0 0 16 16" version="1.1" xmlns="http://www.w3.org/2000/svg" xmlns:xlink="http://www.w3.org/1999/xlink">
    <g stroke="currentColor" stroke-width="1" fill="none" fill-rule="evenodd" stroke-linecap="round" stroke-linejoin="round">
        <g>
            <path d="M8.0088,15.4999 L1.5048,11.7359 M5.8389,11.7425 L5.8399,4.2495 M5.8389,11.7425 L5.8399,4.2495 M5.8398,4.2499 L5.8388,11.7429 M5.8398,4.2499 L1.4998,4.2499 M1.5039,11.7357 L5.8389,11.7427 M5.8398,4.2499 L12.3298,7.9969 M5.8398,4.2499 L12.3298,7.9969 M12.3301,7.9969 L5.8401,4.2499 M8.0127,0.5004 L5.8397,4.2504 M12.3301,7.9969 L14.5001,4.2399 M12.3301,7.9969 L5.8391,11.7429 M12.3301,7.9969 L5.8391,11.7429 M5.8389,11.7425 L12.3299,7.9965 M14.4917,11.7533 L12.3297,7.9973 M5.8389,11.7425 L8.0089,15.4995 M1.5,4.2499 L1.504,11.7359 M1.5,4.2499 L8.013,0.4999 M14.5,4.2396 L8.013,0.5006 M14.5,4.2396 L14.492,11.7536 M8.0088,15.4999 L14.4918,11.7529" id="Stroke-35"/>
        </g>
    </g>
</svg>
