<?xml version="1.0" encoding="UTF-8"?>
<svg viewBox="0 0 423 168" version="1.1" xmlns="http://www.w3.org/2000/svg" xmlns:xlink="http://www.w3.org/1999/xlink">
    <g id="Symbols" stroke="none" stroke-width="1" fill="none" fill-rule="evenodd" stroke-linecap="round" stroke-linejoin="round">
        <g id="404" transform="translate(4.000000, 4.000000)" stroke="currentColor" stroke-width="8">
            <path d="M207.5527,159.9995 L138.1897,119.8535 M184.4126,119.9194 L184.4226,39.9964 M184.4126,119.9194 L184.4226,39.9964 M84.5107,79.9712 L84.5107,159.5792 M184.4223,39.9966 L138.1453,39.9966 M138.1884,119.8501 L184.4124,119.9191 M-2.84217094e-14,119.8501 L102.195,120.0031 M184.4238,39.998 L253.6348,79.968 M184.4238,39.998 L253.6348,79.968 M207.5962,0.0014 L184.4242,39.9984 M69.4077,0.0014 L0.3267,119.2384 M396.9375,79.9712 L396.9375,159.5792 M312.4257,119.8501 L414.6207,120.0031 M381.8339,0.0014 L312.7529,119.2384 M253.6347,79.9682 L276.7737,39.8912 M253.6347,79.9702 L184.4147,119.9232 M253.6347,79.9702 L184.4147,119.9232 M276.6865,120.0356 L253.6345,79.9706 M184.4145,119.9233 L207.5525,160.0003 M138.145,39.9966 L138.188,119.8506 M138.146,39.997 L207.595,5.68434189e-14 M276.7734,39.8911 L207.5964,0.0011 M276.7724,39.8916 L276.6854,120.0346 M207.5527,160.0005 L276.6867,120.0355"></path>
        </g>
    </g>
</svg>