<?xml version="1.0" encoding="UTF-8"?>
<svg viewBox="0 0 32 32" version="1.1" xmlns="http://www.w3.org/2000/svg" xmlns:xlink="http://www.w3.org/1999/xlink" style="background: #FFFFFF;">
    <defs>
        <rect id="path-1" x="0" y="0" width="32" height="32"></rect>
    </defs>
    <g id="Icons---32px" stroke="none" stroke-width="1" fill="none" fill-rule="evenodd">
        <g id="6_Stroke_Icons-(32px)/01_Tools/PDF-Viewer">
            <rect fill="#FFFFFF" x="0" y="0" width="32" height="32"></rect>
            <mask id="mask-2" fill="white">
                <use xlink:href="#path-1"></use>
            </mask>
            <g id="Background"></g>
            <path d="M31,9 L31,28 C31,29.565 29.344,31 27.539,31 L4.461,31 C2.442,31 1,29.75 1,28 L1,4 C1,2.435 2.656,1 4.461,1 L23,1 L31,9 Z M23,1 L23,7 C23,8.104 23.896,9 25,9 L30.875,9 M7,17 L7,25 M8.5,22 L7,22 L7,17 L8.5,17 C9.881,17 11,18.119 11,19.5 C11,20.881 9.881,22 8.5,22 Z M15.127,25 L14,25 L14,17 L15.127,17 C17.266,17 19,18.734 19,20.873 L19,21.127 C19,23.266 17.266,25 15.127,25 Z M26,17 L22,17 L22,25 M25,21 L22,21" id="Stroke-2" stroke="currentColor" stroke-width="2" stroke-linecap="round" stroke-linejoin="round" mask="url(#mask-2)"></path>
        </g>
    </g>
</svg>