<?xml version="1.0" encoding="UTF-8"?>
<svg viewBox="0 0 16 16" version="1.1" xmlns="http://www.w3.org/2000/svg" xmlns:xlink="http://www.w3.org/1999/xlink">
    <g id="6_Stroke_Icons-(16px)/in-progress" stroke="none" stroke-width="1" fill="none" fill-rule="evenodd" stroke-linecap="round" stroke-linejoin="round">
        <path d="M10.4902,14.0098 C11.2902,13.6798 12.0002,13.1898 12.6002,12.5998 C13.1902,11.9998 13.6802,11.2898 14.0102,10.4898 C14.3202,9.7298 14.5002,8.8798 14.5002,7.9998 C14.5002,7.1198 14.3202,6.2698 14.0102,5.5098 C13.6802,4.7098 13.1902,3.9998 12.6002,3.3998 C12.0002,2.8098 11.2902,2.3198 10.4902,1.9898 C9.7302,1.6798 8.8802,1.4998 8.0002,1.4998 M1.9902,5.5098 C1.6802,6.2698 1.5002,7.1198 1.5002,7.9998 M8,14.5 C7.12,14.5 6.27,14.32 5.51,14.01 M3.3999,12.6001 C2.8099,12.0001 2.3199,11.2901 1.9899,10.4901 M5.5098,1.9902 C4.7098,2.3202 3.9998,2.8102 3.3998,3.4002 M11.5,5.5 L6.5,10.5 L4.5,8.5" id="Stroke-6" stroke="currentColor"></path>
    </g>
</svg>