<?xml version="1.0" encoding="UTF-8"?>
<svg viewBox="0 0 16 16" version="1.1" xmlns="http://www.w3.org/2000/svg" xmlns:xlink="http://www.w3.org/1999/xlink">
    <g id="Icons---lined" stroke="currentColor" stroke-width="1" fill="none" fill-rule="evenodd" stroke-linecap="round" stroke-linejoin="round">
        <g id="6_Stroke_Icons-(16px)/publish-1" stroke="currentColor">
            <path d="M15.5,3 C15.5,4.381 14.381,5.5 13,5.5 C11.619,5.5 10.5,4.381 10.5,3 C10.5,1.619 11.619,0.5 13,0.5 C14.381,0.5 15.5,1.619 15.5,3 Z M15.5,13 C15.5,14.381 14.381,15.5 13,15.5 C11.619,15.5 10.5,14.381 10.5,13 C10.5,11.619 11.619,10.5 13,10.5 C14.381,10.5 15.5,11.619 15.5,13 Z M5.5,8 C5.5,9.381 4.381,10.5 3,10.5 C1.619,10.5 0.5,9.381 0.5,8 C0.5,6.619 1.619,5.5 3,5.5 C4.381,5.5 5.5,6.619 5.5,8 Z M10.77,4.1201 L5.23,6.8801 M10.77,11.8799 L5.23,9.1199" id="Stroke-2"></path>
        </g>
    </g>
</svg>