<?xml version="1.0" encoding="UTF-8"?>
<svg viewBox="0 0 16 16" version="1.1" xmlns="http://www.w3.org/2000/svg" xmlns:xlink="http://www.w3.org/1999/xlink">
    <g id="Icons---lined" stroke="none" stroke-width="1" fill="none" fill-rule="evenodd" stroke-linecap="round" stroke-linejoin="round">
        <g id="6_Stroke_Icons-(16px)/questionaire" stroke="currentColor">
            <path d="M0.5,6.5 L10.5,6.5 L10.5,15.5 L0.5,15.5 L0.5,6.5 Z M2.5,3.5 L12.5,3.5 L12.5,12.5 L10.5,12.5 L10.5,6.5 L2.5,6.5 L2.5,3.5 Z M4.5,0.5 L14.5,0.5 L14.5,9.5 L12.5,9.5 L12.5,3.5 L4.5,3.5 L4.5,0.5 Z M5.5,11.5 C5.5,11.1666667 5.5,11 5.5,11 C5.5,10.5508671 6.5,10 6.5,9.5 C6.5,9 6,8.5 5.5,8.5 C5,8.5 4.5,9 4.5,9.5 M5.5,13.5 L5.5,13.5" id="Rectangle-2"></path>
        </g>
    </g>
</svg>