<?xml version="1.0" encoding="UTF-8"?>
<svg viewBox="0 0 16 16" version="1.1" xmlns="http://www.w3.org/2000/svg" xmlns:xlink="http://www.w3.org/1999/xlink">
    <g id="Icons---lined" stroke="none" stroke-width="1" fill="none" fill-rule="evenodd" stroke-linecap="round" stroke-linejoin="round">
        <g id="6_Stroke_Icons-(16px)/student" stroke="currentColor">
            <path d="M4.5,7.8501 L1.5,6.4401 L8,3.5001 L14.5,6.4401 L11.5,7.8501 M11.5,7.8501 L11.5,9.5011 C11.5,11.1571 10.157,12.5001 8.501,12.5001 L7.498,12.5001 C5.842,12.5001 4.5,11.1581 4.5,9.5021 L4.5,7.8501 L8,9.5001 L11.5,7.8501 Z M14.5,6.4399 L14.5,10.4999 M15.5,11.5 C15.5,12.052 15.052,12.5 14.5,12.5 C13.948,12.5 13.5,12.052 13.5,11.5 C13.5,10.948 13.948,10.5 14.5,10.5 C15.052,10.5 15.5,10.948 15.5,11.5 Z M15.5,14.5 L14.5,12.5 L13.5,14.5" id="Stroke-2"></path>
        </g>
    </g>
</svg>