<?xml version="1.0" encoding="UTF-8"?>
<svg viewBox="0 0 48 48" version="1.1" xmlns="http://www.w3.org/2000/svg" xmlns:xlink="http://www.w3.org/1999/xlink">
    <g stroke="none" stroke-width="1" fill="none" fill-rule="evenodd">
        <g>
            <path d="M23.9621739,0 C10.7496522,0 0,10.7496522 0,23.9621739 C0,37.1746957 10.7496522,47.9243478 23.9621739,47.9243478 C37.1746957,47.9243478 47.9243478,37.1746957 47.9243478,23.9621739 C47.9243478,10.7496522 37.1746957,0 23.9621739,0 Z M23.9621739,2.99530435 C35.5234783,2.99530435 44.9290435,12.4008696 44.9290435,23.9621739 C44.9290435,28.7786957 43.2798261,33.2075652 40.5392174,36.7514783 C30.0272174,31.7765217 17.8969565,31.7765217 7.38513043,36.7514783 C4.64452174,33.2075652 2.99530435,28.7786957 2.99530435,23.9621739 C2.99530435,12.4008696 12.4008696,2.99530435 23.9621739,2.99530435 Z M38.4381739,39.0931304 C34.6708696,42.6988696 29.5765217,44.9292174 23.9621739,44.9292174 C18.3478261,44.9292174 13.2534783,42.6987826 9.48617391,39.0931304 C18.7268696,35.0001739 29.1974783,35.0001739 38.4381739,39.0931304 Z M23.9621739,11.9810435 C28.9172174,11.9810435 32.948,16.0117391 32.948,20.9668696 C32.948,25.922 28.9172174,29.9526957 23.9621739,29.9526957 C19.0071304,29.9526957 14.9763478,25.922 14.9763478,20.9668696 C14.9763478,16.0117391 19.0071304,11.9810435 23.9621739,11.9810435 Z M23.9621739,14.9763478 C20.6583478,14.9763478 17.9716522,17.6630435 17.9716522,20.9668696 C17.9716522,24.2706957 20.6582609,26.9573913 23.9621739,26.9573913 C27.266,26.9573913 29.9526957,24.2707826 29.9526957,20.9668696 C29.9526957,17.6630435 27.266087,14.9763478 23.9621739,14.9763478 Z" id="Shape" fill="currentColor"></path>
        </g>
    </g>
</svg>