<?xml version="1.0" encoding="UTF-8"?>
<svg width="262px" height="72px" viewBox="0 0 262 72" version="1.1" xmlns="http://www.w3.org/2000/svg" xmlns:xlink="http://www.w3.org/1999/xlink">
    <g id="Symbols" stroke="none" stroke-width="1" fill="none" fill-rule="evenodd">
        <g id="Logo-+-Schriftzug" fill="#FFFFFF">
            <path d="M59.3921,46.7588 L53.1901,35.9878 L59.4031,25.2168 L59.3921,46.7588 Z M32.0831,67.9458 L23.8821,53.7378 L50.5861,38.3288 L58.7521,52.5268 L32.0831,67.9458 Z M8.1211,54.7988 L20.5471,54.8218 L26.7721,65.5928 L8.1211,54.7988 Z M3.4261,20.5688 L19.8281,20.5688 L19.8281,51.3958 L3.4491,51.3618 L3.4261,20.5688 Z M26.7841,6.3948 L20.5591,17.1418 L8.1211,17.1418 L26.7841,6.3948 Z M47.7881,35.9878 L23.2541,50.1398 L23.2541,21.8138 L47.7881,35.9878 Z M32.1061,4.0528 L58.7871,19.4378 L50.5861,33.6468 L23.8821,18.2278 L32.1061,4.0528 Z M62.7051,18.1478 C62.6591,18.0448 62.6131,17.9418 62.5441,17.8508 C62.4301,17.6678 62.2701,17.5078 62.0871,17.3938 C62.0421,17.3598 61.9961,17.3368 61.9391,17.3018 L32.5281,0.3528 L32.5171,0.3418 L32.3341,0.2268 C31.7861,-0.0812 31.1351,-0.0702 30.6211,0.2268 C30.5531,0.2608 30.4961,0.2958 30.4381,0.3418 L0.8561,17.3708 L0.7541,17.4398 C0.6631,17.4968 0.5821,17.5648 0.5021,17.6448 C0.4221,17.7248 0.3541,17.8048 0.2971,17.8958 C0.2281,17.9878 0.1831,18.0908 0.1371,18.1928 C0.1031,18.2618 0.0801,18.3418 0.0571,18.4218 C0.0461,18.4558 0.0341,18.5018 0.0341,18.5478 C0.0111,18.6498 0.0001,18.7528 0.0001,18.8558 L0.0231,53.0738 L0.0231,53.1198 C0.0231,53.1998 0.0341,53.2798 0.0461,53.3608 C0.0461,53.3948 0.0461,53.4168 0.0571,53.4288 L0.0571,53.4408 C0.0681,53.4628 0.0681,53.4748 0.0801,53.4858 L0.0801,53.4968 L0.0801,53.5088 C0.1031,53.6228 0.1371,53.7258 0.1941,53.8178 C0.2281,53.8968 0.2741,53.9768 0.3201,54.0448 C0.3881,54.1368 0.4451,54.2168 0.5251,54.2848 C0.5941,54.3648 0.6741,54.4338 0.7651,54.4908 C0.8111,54.5258 0.8681,54.5478 0.9251,54.5818 C0.9021,54.5708 0.8791,54.5708 0.8681,54.5598 L30.5641,71.7488 L30.5981,71.7718 C30.6331,71.7948 30.6671,71.8178 30.7011,71.8288 C30.7351,71.8398 30.7691,71.8638 30.8041,71.8738 C30.8841,71.9088 30.9641,71.9318 31.0321,71.9438 C31.0891,71.9538 31.1581,71.9778 31.2261,71.9888 C31.3071,71.9998 31.3751,71.9998 31.4551,71.9998 L31.4661,71.9998 C31.5691,71.9998 31.6841,71.9888 31.7861,71.9658 C31.9001,71.9438 32.0151,71.9198 32.1171,71.8738 C32.1861,71.8398 32.2541,71.8058 32.3231,71.7718 L61.9051,54.6618 L61.9511,54.6398 C62.0301,54.5938 62.1101,54.5358 62.1791,54.4798 C62.2251,54.4458 62.2591,54.4108 62.2931,54.3648 L62.3051,54.3648 C62.3161,54.3648 62.3161,54.3538 62.3161,54.3538 C62.3501,54.3198 62.3731,54.2968 62.3961,54.2738 C62.5561,54.0908 62.6701,53.8738 62.7271,53.6458 C62.7501,53.5768 62.7611,53.5198 62.7731,53.4508 C62.7961,53.3608 62.8071,53.2798 62.8071,53.1888 L62.8071,53.1548 L62.8411,18.8098 C62.8411,18.5698 62.7961,18.3418 62.7051,18.1478 L62.7051,18.1478 Z" id="Fill-13"></path>
            <path d="M106.168,48.8222 L103.572,55.8452 L79.264,55.8452 C80.789,55.8452 82.019,54.6152 82.019,53.0912 L82.019,19.4142 C82.019,17.8892 80.789,16.6582 79.264,16.6582 L89.061,16.6582 C87.762,16.6582 86.679,17.5522 86.385,18.7592 C86.33,18.9672 86.305,19.1872 86.305,19.4142 L86.305,48.1922 C86.305,48.5162 86.336,48.8292 86.385,49.1342 C86.832,51.7312 89.091,53.7032 91.816,53.7032 L101.729,53.7032 C102.525,53.6842 103.217,53.2312 103.572,52.5702 L103.664,52.3922 L105.728,48.4552 L106.168,48.8222 Z" id="Fill-16"></path>
            <path d="M155.4961,16.6587 C153.9721,16.6587 152.7411,17.8897 152.7411,19.4137 L152.7411,40.5377 C152.7411,43.3917 151.9571,46.0617 150.5981,48.3517 C147.9341,52.8397 143.0361,55.8457 137.4341,55.8457 C133.0991,55.8457 129.1861,54.0457 126.4121,51.1557 C123.7551,48.4067 122.1261,44.6587 122.1261,40.5377 L122.1261,20.0267 C122.1261,18.1647 120.6201,16.6587 118.7581,16.6587 L129.7801,16.6587 C127.9181,16.6587 126.4121,18.1647 126.4121,20.0267 L126.4121,41.1197 C126.4121,47.7997 131.8251,53.2127 138.5051,53.2127 C145.1851,53.2127 150.5981,47.7997 150.5981,41.1197 L150.5981,19.4137 C150.5981,17.8897 149.3671,16.6587 147.8431,16.6587 L155.4961,16.6587 Z" id="Fill-18"></path>
            <path d="M206.6689,47.3535 L206.2709,52.8755 C202.5179,54.7745 198.2739,55.8455 193.7789,55.8455 C193.5649,55.8455 193.3569,55.8455 193.1429,55.8395 L189.9829,55.8395 C189.8179,55.8455 189.6589,55.8455 189.4929,55.8455 C187.6259,55.8455 185.8189,55.5825 184.1109,55.0985 C179.0109,53.6415 174.7619,50.1755 172.2699,45.6085 C172.2699,45.6015 172.2639,45.6015 172.2639,45.5955 C170.7569,42.8165 169.8999,39.6315 169.8999,36.2525 C169.8999,31.2865 171.7429,26.7495 174.7919,23.3025 C174.9579,23.1055 175.1289,22.9165 175.3069,22.7325 C175.3179,22.7205 175.3309,22.7075 175.3439,22.6955 C175.7039,22.3165 176.0839,21.9555 176.4759,21.6125 C179.9409,18.5265 184.4969,16.6585 189.4929,16.6585 C189.7809,16.6585 190.0689,16.6655 190.3569,16.6775 C190.6749,16.6655 190.9869,16.6585 191.3059,16.6585 C195.6409,16.6585 199.7129,17.8035 203.2279,19.8065 L203.7669,22.8245 L204.0359,24.3495 L204.1149,24.8025 L203.6129,25.0415 C201.1829,21.7345 197.4359,19.4505 193.1489,18.9305 C192.9959,18.9125 192.8429,18.8935 192.6899,18.8815 C192.5299,18.8695 192.3649,18.8565 192.1999,18.8445 L192.1569,18.8445 C191.8749,18.8265 191.5939,18.8205 191.3059,18.8205 C191.0189,18.8205 190.7359,18.8265 190.4549,18.8445 L190.4119,18.8445 C190.1609,18.8565 189.9099,18.8815 189.6649,18.9055 C185.8749,19.2545 182.4459,20.8165 179.7519,23.2045 C178.4409,24.3615 177.3029,25.7145 176.3969,27.2205 C174.7859,29.8535 173.8669,32.9455 173.8669,36.2525 C173.8669,42.9385 177.6339,48.7495 183.1619,51.6645 C184.8639,52.5705 186.7319,53.1945 188.7099,53.4885 C189.5609,53.6175 190.4239,53.6845 191.3059,53.6845 L194.3669,53.6845 C197.1589,53.6845 199.7559,52.8455 201.9169,51.4065 C203.6009,50.2805 205.0219,48.8045 206.0569,47.0655 L206.6689,47.3535 Z" id="Fill-20"></path>
            <path d="M231.0068,36.2685 L237.8648,19.7115 L245.0618,36.2685 L231.0068,36.2685 Z M249.3928,55.8455 L261.6908,55.8455 C259.5848,55.8455 257.7558,54.6185 256.8898,52.8375 L256.7928,52.5965 L255.8908,50.5275 L240.1148,14.2605 L240.0558,14.1045 L239.8028,14.0085 C239.3938,15.4395 238.2148,16.5465 236.7348,16.8595 L236.6748,17.0045 L222.3558,51.5745 L222.0298,52.3565 L221.9218,52.6215 C221.1158,54.5095 219.2268,55.8455 217.0368,55.8455 L226.9878,55.8455 C225.4718,55.8455 224.2568,54.6305 224.2568,53.1145 C224.2568,52.7295 224.3288,52.3805 224.4608,52.0435 L224.6778,51.5385 L230.3688,37.7855 L245.7228,37.7855 L251.6668,51.4655 L251.9078,52.0435 C252.0518,52.3805 252.1238,52.7295 252.1238,53.1145 C252.1238,54.6305 250.8968,55.8455 249.3928,55.8455 L249.3928,55.8455 Z" id="Fill-22"></path>
        </g>
    </g>
</svg>