<?xml version="1.0" encoding="UTF-8"?>
<svg viewBox="0 0 134 152" version="1.1" xmlns="http://www.w3.org/2000/svg">
    <g id="ðŸ”-Symbols" stroke="none" stroke-width="1" fill="none" fill-rule="evenodd" opacity="0.600841704" stroke-linecap="round" stroke-linejoin="round">
        <g id="BG-Office" transform="translate(-573.000000, -324.000000)" stroke="currentColor" stroke-width="4">
            <path d="M640,474 L576,436 M618.995,436 L619.005,362 M618.995,436 L619.005,362 M619.005,362 L618.995,436 M619,362 L576,362 M576,435.965 L619,436.035 M619,364 L683,400 M619,364 L683,400 M683,400 L619,364 M640,326 L619,362 M683,400 L704,362 M683,400 L619,436 M683,400 L619,436 M619,436 L683,400 M704,438 L683,400 M619,436 L640,474 M575.98,362 L576.02,436 M576,362 L640,326 M704,362 L640,326 M704.04,362 L703.96,436 M640,474 L704,438" id="Luca"></path>
        </g>
    </g>
</svg>